<svg width="20" height="19" viewBox="0 0 20 19" fill="none" xmlns="http://www.w3.org/2000/svg">
<path d="M11.1474 17.6355L10.1865 18.5963C9.77965 19.0032 9.12176 19.0032 8.71923 18.5963L0.305108 10.1866C-0.101748 9.7797 -0.101748 9.1218 0.305108 8.71927L8.71923 0.305152C9.12609 -0.101703 9.78398 -0.101703 10.1865 0.305152L11.1474 1.26602C11.5586 1.67721 11.5499 2.34809 11.1301 2.75062L5.91452 7.71945L18.3539 7.71945C18.9296 7.71945 19.3927 8.18257 19.3927 8.75823L19.3927 10.1433C19.3927 10.7189 18.9296 11.1821 18.3539 11.1821L5.91452 11.182L11.1301 16.1509C11.5542 16.5534 11.5629 17.2243 11.1474 17.6355Z" fill="black"/>
</svg>
